<?xml version="1.0" standalone="no"?>
<!DOCTYPE svg PUBLIC "-//W3C//DTD SVG 20010904//EN"
 "http://www.w3.org/TR/2001/REC-SVG-20010904/DTD/svg10.dtd">
<svg version="1.0" xmlns="http://www.w3.org/2000/svg"
 width="1024.000000pt" height="368.000000pt" viewBox="0 0 1024.000000 368.000000"
 preserveAspectRatio="xMidYMid meet">

<g transform="translate(0.000000,368.000000) scale(0.100000,-0.100000)"
fill="#000000" stroke="none">
<path d="M9820 3380 l0 -90 94 0 93 0 7 38 c3 20 6 61 6 90 l0 52 -100 0 -100
0 0 -90z"/>
<path d="M2002 1893 l3 -1538 280 -3 c154 -1 290 0 303 3 l22 5 0 1535 0 1535
-305 0 -305 0 2 -1537z"/>
<path d="M6290 1835 l0 -1545 305 0 305 0 1 443 c2 464 4 616 12 623 2 3 165
-236 361 -531 l357 -535 371 0 370 0 -17 27 c-10 16 -37 53 -60 83 -36 49
-118 163 -217 302 -18 26 -73 103 -121 170 -276 384 -419 584 -424 595 -5 14
79 136 610 881 l148 207 -343 5 -343 5 -27 -30 c-15 -16 -150 -212 -299 -435
-336 -500 -365 -541 -373 -533 -3 3 -6 413 -6 910 l0 903 -305 0 -305 0 0
-1545z"/>
<path d="M9065 3183 c-112 -34 -206 -126 -246 -239 -25 -71 -27 -209 -4 -274
38 -109 105 -182 209 -231 115 -54 249 -48 358 16 60 35 68 35 68 -1 0 -12 7
-25 16 -28 22 -9 117 -7 131 2 10 6 13 97 13 377 l1 370 -76 3 -75 3 -6 -31
c-8 -37 -14 -37 -63 -4 -82 54 -221 70 -326 37z m235 -195 c24 -13 58 -40 74
-61 27 -33 31 -48 34 -111 5 -100 -24 -159 -98 -196 -158 -79 -327 39 -307
213 17 139 171 219 297 155z"/>
<path d="M9818 2809 c-2 -204 -1 -375 2 -379 3 -5 49 -6 103 -3 l97 6 0 373 0
374 -100 0 -100 0 -2 -371z"/>
<path d="M5673 2883 c-80 -65 -321 -263 -422 -347 l-84 -71 -328 -3 c-308 -2
-334 -4 -423 -26 -181 -47 -326 -124 -430 -230 -82 -85 -182 -254 -213 -357
-31 -110 -33 -326 -3 -445 71 -282 284 -502 585 -605 l70 -24 570 0 570 0 65
23 c172 62 322 164 427 291 76 91 139 226 165 348 35 172 9 384 -66 538 -79
160 -213 299 -374 387 -27 14 -31 22 -37 80 -3 34 -5 159 -3 276 2 116 0 212
-4 212 -3 0 -32 -21 -65 -47z m-305 -965 c18 -18 15 -45 -8 -68 -20 -20 -33
-20 -556 -20 -350 0 -542 4 -555 10 -19 11 -28 68 -12 83 3 4 257 7 563 7 419
0 559 -3 568 -12z m372 -358 c23 -23 26 -53 6 -69 -9 -8 -217 -10 -762 -9
l-749 3 -3 35 c-3 24 2 38 14 47 14 10 166 13 746 13 715 0 728 0 748 -20z
m-692 -292 c16 -16 15 -50 -2 -74 -14 -18 -29 -19 -326 -19 -297 0 -312 1
-326 19 -17 24 -18 58 -2 74 17 17 639 17 656 0z"/>
<path d="M8450 2530 l0 -110 89 0 c49 0 96 3 105 6 13 5 16 25 16 110 l0 104
-105 0 -105 0 0 -110z"/>
<path d="M933 2110 c-350 -49 -629 -284 -727 -610 -48 -163 -58 -299 -31 -451
63 -360 304 -628 650 -720 62 -16 110 -21 210 -22 213 0 358 42 526 155 131
87 223 198 300 362 l38 81 -239 3 -240 2 -67 -68 c-76 -78 -137 -107 -258
-125 -130 -19 -288 37 -367 131 -36 43 -87 148 -95 195 l-6 37 649 2 649 3 3
129 c2 113 -1 143 -24 235 -81 323 -322 566 -636 641 -97 23 -249 32 -335 20z
m291 -421 c82 -32 168 -113 212 -202 20 -38 33 -75 30 -83 -4 -12 -73 -14
-410 -14 -271 0 -407 3 -411 10 -4 6 9 45 29 86 55 116 136 186 256 221 68 20
221 10 294 -18z"/>
</g>
</svg>
